<svg id="Layer_1" data-name="Layer 1" xmlns="http://www.w3.org/2000/svg" xmlns:xlink="http://www.w3.org/1999/xlink" viewBox="0 0 778.76 120"><defs><style>.cls-1{fill:url(#linear-gradient);}.cls-2{fill:url(#linear-gradient-2);}.cls-3{fill:url(#linear-gradient-3);}.cls-4{fill:url(#linear-gradient-4);}.cls-5{fill:url(#linear-gradient-5);}.cls-6{fill:url(#linear-gradient-6);}.cls-7{fill:url(#linear-gradient-7);}.cls-8{fill:url(#linear-gradient-8);}.cls-9{fill:url(#linear-gradient-9);}.cls-10{fill:url(#linear-gradient-10);}</style><linearGradient id="linear-gradient" x1="178.12" y1="449.6" x2="178.12" y2="603.71" gradientUnits="userSpaceOnUse"><stop offset="0" stop-color="#27aae1"/><stop offset="1" stop-color="#0077e7"/></linearGradient><linearGradient id="linear-gradient-2" x1="316.77" y1="449.6" x2="316.77" y2="603.71" xlink:href="#linear-gradient"/><linearGradient id="linear-gradient-3" x1="394.95" y1="449.6" x2="394.95" y2="603.71" xlink:href="#linear-gradient"/><linearGradient id="linear-gradient-4" x1="479.04" y1="449.6" x2="479.04" y2="603.71" xlink:href="#linear-gradient"/><linearGradient id="linear-gradient-5" x1="562.16" y1="449.6" x2="562.16" y2="603.71" xlink:href="#linear-gradient"/><linearGradient id="linear-gradient-6" x1="629.9" y1="449.6" x2="629.9" y2="603.71" xlink:href="#linear-gradient"/><linearGradient id="linear-gradient-7" x1="684.61" y1="449.6" x2="684.61" y2="603.71" xlink:href="#linear-gradient"/><linearGradient id="linear-gradient-8" x1="728.23" y1="449.6" x2="728.23" y2="603.71" xlink:href="#linear-gradient"/><linearGradient id="linear-gradient-9" x1="788.41" y1="449.6" x2="788.41" y2="603.71" xlink:href="#linear-gradient"/><linearGradient id="linear-gradient-10" x1="858.4" y1="449.6" x2="858.4" y2="603.71" xlink:href="#linear-gradient"/></defs><path class="cls-1" d="M230.62,530V460a20,20,0,0,0-20-20h-80a20,20,0,0,0-20,20v80a20,20,0,0,0,20,20h115V530Zm-30-30h-30v30h-30V470h60Z" transform="translate(-110.62 -440)"/><path class="cls-2" d="M331.4,550,323,537.46a40.05,40.05,0,0,1-7.19.64,39.24,39.24,0,0,1-19.5-5,37.15,37.15,0,0,1-14.1-13.83,41.09,41.09,0,0,1,0-40,36.85,36.85,0,0,1,14.1-13.77,41.17,41.17,0,0,1,39.07,0,36.54,36.54,0,0,1,14,13.77,39,39,0,0,1,5.15,20,39.55,39.55,0,0,1-3.75,17.21,37.17,37.17,0,0,1-10.29,13.13l16,20.36Zm-28.3-36.6q4.61,5.19,12.75,5.2t12.71-5.26q4.65-5.25,4.66-14,0-9-4.66-14.2t-12.71-5.2q-8.14,0-12.75,5.2t-4.61,14.2Q298.49,508.21,303.1,513.4Z" transform="translate(-110.62 -440)"/><path class="cls-3" d="M402.35,537.35l-15-27.86h-2.25v27.86h-21V461.79H397.2A34.38,34.38,0,0,1,412.64,465a22.23,22.23,0,0,1,9.54,8.68A24.18,24.18,0,0,1,425.39,486a22.49,22.49,0,0,1-4.23,13.56q-4.23,5.85-12.38,8.31l17,29.47Zm-17.26-42.23h10.4c2.86,0,5-.67,6.43-2a7.76,7.76,0,0,0,2.14-5.9,7.53,7.53,0,0,0-2.19-5.73c-1.47-1.4-3.59-2.09-6.38-2.09h-10.4Z" transform="translate(-110.62 -440)"/><path class="cls-4" d="M523.14,461.79v75.56h-21V495.66l-14.25,41.69H470.3l-14.36-42v42h-21V461.79h25.4l19,49.09,18.54-49.09Z" transform="translate(-110.62 -440)"/><path class="cls-5" d="M592.27,511.52H552.51c.21,3.29,1.13,5.74,2.73,7.34a8.35,8.35,0,0,0,6.17,2.42,7.73,7.73,0,0,0,7.5-4.72h22.4a26.22,26.22,0,0,1-5.41,11.09,27.88,27.88,0,0,1-10.13,7.67,32.14,32.14,0,0,1-13.51,2.78,32.63,32.63,0,0,1-15.81-3.75,27,27,0,0,1-10.82-10.72,36.43,36.43,0,0,1,0-32.74,26.63,26.63,0,0,1,10.77-10.66,32.73,32.73,0,0,1,15.91-3.76A33.08,33.08,0,0,1,578,480.12a26.24,26.24,0,0,1,10.72,10.45,32,32,0,0,1,3.86,16A37,37,0,0,1,592.27,511.52Zm-21.11-10.18a7.57,7.57,0,0,0-2.57-6.06,9.59,9.59,0,0,0-6.43-2.19,9.42,9.42,0,0,0-6.33,2.09,10.18,10.18,0,0,0-3.21,6.16Z" transform="translate(-110.62 -440)"/><path class="cls-6" d="M601.12,490.94a25.52,25.52,0,0,1,9.27-10.71,23.79,23.79,0,0,1,13.07-3.76,21.78,21.78,0,0,1,10.35,2.42,18.06,18.06,0,0,1,7.12,6.59V458h21.12v79.31H640.93V529a17.77,17.77,0,0,1-7,6.65,21.8,21.8,0,0,1-10.61,2.46,23.63,23.63,0,0,1-13-3.75,25.61,25.61,0,0,1-9.21-10.77,41.09,41.09,0,0,1,0-32.64Zm36.76,7.18a10.88,10.88,0,0,0-15.6-.05q-3.1,3.27-3.1,9.16t3.1,9.17a10.74,10.74,0,0,0,15.6.05q3.17-3.32,3.16-9.22T637.88,498.12Z" transform="translate(-110.62 -440)"/><path class="cls-7" d="M675.71,468.6a9.9,9.9,0,0,1-3.37-7.67,10.17,10.17,0,0,1,3.37-7.82,12.71,12.71,0,0,1,8.95-3.11,12.56,12.56,0,0,1,8.85,3.11,10.17,10.17,0,0,1,3.37,7.82,9.9,9.9,0,0,1-3.37,7.67,12.71,12.71,0,0,1-8.85,3A12.87,12.87,0,0,1,675.71,468.6Zm19.35,8.62v60.13h-21V477.22Z" transform="translate(-110.62 -440)"/><path class="cls-8" d="M727,519.88h25.62v17.47H703.85V520.74l23.9-26.05H704.06V477.22h47.7v16.62Z" transform="translate(-110.62 -440)"/><path class="cls-9" d="M818.53,511.52H778.77q.32,4.93,2.73,7.34a8.34,8.34,0,0,0,6.16,2.42,7.74,7.74,0,0,0,7.51-4.72h22.4a26.24,26.24,0,0,1-5.42,11.09A27.76,27.76,0,0,1,802,535.32a32.17,32.17,0,0,1-13.51,2.78,32.63,32.63,0,0,1-15.81-3.75,26.84,26.84,0,0,1-10.82-10.72,36.39,36.39,0,0,1-.06-32.74,26.76,26.76,0,0,1,10.77-10.66,32.77,32.77,0,0,1,15.92-3.76,33.11,33.11,0,0,1,15.76,3.65A26.22,26.22,0,0,1,815,490.57a31.88,31.88,0,0,1,3.86,16A37,37,0,0,1,818.53,511.52Zm-21.11-10.18a7.55,7.55,0,0,0-2.58-6.06,9.55,9.55,0,0,0-6.43-2.19,9.39,9.39,0,0,0-6.32,2.09,10.13,10.13,0,0,0-3.21,6.16Z" transform="translate(-110.62 -440)"/><path class="cls-10" d="M883.27,483.6q6.11,6.91,6.11,18.7v35.05h-21V505.09c0-3.43-.89-6.12-2.68-8.09a9.22,9.22,0,0,0-7.18-2.95,9.5,9.5,0,0,0-7.4,2.95c-1.78,2-2.67,4.66-2.67,8.09v32.26h-21V477.22h21v8.58a20.57,20.57,0,0,1,7.5-6.59,22.59,22.59,0,0,1,10.82-2.52Q877.16,476.69,883.27,483.6Z" transform="translate(-110.62 -440)"/></svg>